<svg xmlns="http://www.w3.org/2000/svg" width="16" height="16" fill="none" viewBox="0 0 16 16">
    <g clip-path="url(#a)">
        <path fill="#fff" d="M10.682 1.83a6.26 6.26 0 1 0-.851 9.562c.05.251.174.483.354.666l3.572 3.556a1.324 1.324 0 1 0 1.857-1.857L12.058 10.2a1.37 1.37 0 0 0-.666-.354 6.264 6.264 0 0 0-.71-8.016zM9.561 9.56a4.672 4.672 0 1 1-6.606-6.608 4.672 4.672 0 0 1 6.606 6.609z"/>
    </g>
    <defs>
        <clipPath id="a">
            <path fill="#fff" d="M0 0h16v16H0z"/>
        </clipPath>
    </defs>
</svg>
