<svg xmlns="http://www.w3.org/2000/svg" viewBox="0 0 83.333 40">
  <defs>
    <style>
      .cls-1 {
        fill: #fff;
      }

      .cls-2 {
        fill: #95989a;
      }
    </style>
  </defs>
  <g id="Input" transform="translate(-997 -464)">
    <rect id="Rectangle_721" data-name="Rectangle 721" class="cls-1" width="83.333" height="40" rx="4" transform="translate(997 464)"/>
    <g id="mastercard" transform="translate(1020 372.168)">
      <path id="Path_234" data-name="Path 234" class="cls-2" d="M37.962,112.066A11.276,11.276,0,0,0,26.7,100.8a11.16,11.16,0,0,0-7.1,2.51,11.456,11.456,0,0,1,3.184,5.2h-.918a11.6,11.6,0,0,0-2.939-4.653,11.6,11.6,0,0,0-2.939,4.653h-.918a12,12,0,0,1,3.184-5.2A10.992,10.992,0,0,0,11.2,100.8a11.266,11.266,0,1,0,7.1,20.022,12,12,0,0,1-3.184-5.2h.918a11.6,11.6,0,0,0,2.939,4.653,10.979,10.979,0,0,0,2.939-4.653h.918a12,12,0,0,1-3.184,5.2,11.23,11.23,0,0,0,18.307-8.756"/>
      <g id="Group_325" data-name="Group 325" transform="translate(0.98 109.429)">
        <path id="Path_235" data-name="Path 235" class="cls-1" d="M388,232.164l.8-4.164h.98l.122.429A1.431,1.431,0,0,1,391,228l-.306,1.1c-.306,0-.8-.061-1.163,1.163l-.367,1.9H388" transform="translate(-359.284 -226.894)"/>
        <path id="Path_236" data-name="Path 236" class="cls-1" d="M181.348,214.4h1.1l-.245,1.1h.612l-.184.857h-.551l-.306,1.653c-.061.306,0,.612.612.49l-.122.918a1.367,1.367,0,0,1-.857.184.978.978,0,0,1-.918-1.286l.857-3.919" transform="translate(-167.633 -214.335)"/>
        <path id="Path_237" data-name="Path 237" class="cls-1" d="M212.207,230.327c.122-.674.429-2.327-1.531-2.327a2.12,2.12,0,0,0-2.082,2.082,1.8,1.8,0,0,0,1.9,2.082,5.056,5.056,0,0,0,1.469-.184l.184-.857a6.012,6.012,0,0,1-1.286.122c-.429,0-1.163,0-1.041-.918h2.388" transform="translate(-193.594 -226.894)"/>
        <path id="Path_238" data-name="Path 238" class="cls-1" d="M140.661,228.241l.245-.857a3.436,3.436,0,0,0-1.1-.184c-.184,0-1.531,0-1.714.98-.184.8.122,1.1.367,1.225.429.184.674.367.918.49a.318.318,0,0,1-.122.612,4.6,4.6,0,0,1-1.469-.122l-.184.857a5.491,5.491,0,0,0,1.347.122c.306,0,1.653.061,1.837-1.163a.989.989,0,0,0-.367-1.041,5.06,5.06,0,0,0-.8-.429c-.245-.122-.429-.49,0-.612.184.061.735.061,1.041.122" transform="translate(-128.048 -226.155)"/>
        <path id="Path_239" data-name="Path 239" class="cls-1" d="M18.066,221.821l.98-5.021h-1.9L15.8,219.861l-.245-3.061H13.78l-.98,5.021h1.1l.735-3.612.306,3.612h1.041l1.592-3.551-.674,3.551h1.163" transform="translate(-12.8 -216.551)"/>
        <path id="Path_240" data-name="Path 240" class="cls-1" d="M89.372,228.376l-.184.918c.306,0,1.041-.122,1.408-.122s.857-.061.674.551c-.306,0-2.327-.306-2.633,1.469a1.13,1.13,0,0,0,1.163,1.286,1.367,1.367,0,0,0,.918-.245l.122.245h1.041l.429-2.266c.122-.551.306-1.9-1.592-1.9a3.506,3.506,0,0,0-1.347.061" transform="translate(-82.82 -227.147)"/>
        <path id="Path_241" data-name="Path 241" class="cls-1" d="M295.38,214.958a1.367,1.367,0,0,0-.857-.184,1.513,1.513,0,0,0-1.347,1.347c-.184,1.225.612,1.776,1.776,1.408l.306,1.041a2.79,2.79,0,0,1-1.347.245c-1.163,0-2.449-1.041-1.9-3.184a2.708,2.708,0,0,1,2.572-2.082,1.883,1.883,0,0,1,1.531.674l-.735.735" transform="translate(-270.521 -213.546)"/>
        <path id="Path_242" data-name="Path 242" class="cls-1" d="M425.826,215.192c-.245-.184-.367-.49-.857-.49-.612,0-1.592-.122-2.143,1.776-.367,1.286.367,2.388,1.163,2.388a2.31,2.31,0,0,0,.98-.306l.122.306h1.225l.98-5.266h-1.163l-.306,1.592" transform="translate(-391.354 -213.596)"/>
        <path id="Path_243" data-name="Path 243" class="cls-1" d="M338.972,228.376l-.184.918c.306,0,1.041-.122,1.408-.122s.8-.061.674.551c-.306,0-2.327-.306-2.633,1.469a1.13,1.13,0,0,0,1.163,1.286,1.367,1.367,0,0,0,.918-.245l.122.245h1.041l.429-2.266c.122-.551.306-1.9-1.592-1.9a3.491,3.491,0,0,0-1.347.061" transform="translate(-313.317 -227.147)"/>
      </g>
      <g id="Group_326" data-name="Group 326" transform="translate(7.933 111.331)">
        <path id="Path_244" data-name="Path 244" class="cls-2" d="M224.8,239.135h1.408c.061-.429-.061-.735-.49-.735a.868.868,0,0,0-.918.735" transform="translate(-215.528 -238.4)"/>
        <path id="Path_245" data-name="Path 245" class="cls-2" d="M104.962,258.031a1.48,1.48,0,0,0-.98.122c-.367.245-.49.673-.061.8a.833.833,0,0,0,.98-.49l.061-.429" transform="translate(-103.649 -256.5)"/>
        <path id="Path_246" data-name="Path 246" class="cls-2" d="M440.08,241.614a1.448,1.448,0,0,0-.061-1.041c-.367-.49-1.163-.122-1.408.8-.184.612.184,1.041.551,1.041.429,0,.674-.306.918-.8" transform="translate(-412.929 -240.206)"/>
        <path id="Path_247" data-name="Path 247" class="cls-2" d="M355.362,258.031a1.48,1.48,0,0,0-.98.122c-.367.245-.49.673-.061.8a.8.8,0,0,0,.98-.49l.061-.429" transform="translate(-334.884 -256.5)"/>
      </g>
      <path id="Path_248" data-name="Path 248" class="cls-1" d="M256,232.9l.8-4.1h.98l.122.429a1.431,1.431,0,0,1,1.1-.429l-.306,1.1c-.245,0-.8-.061-1.163,1.163l-.367,1.9H256" transform="translate(-236.407 -118.203)"/>
      <g id="Group_327" data-name="Group 327" transform="translate(0.612 100.8)">
        <path id="Path_249" data-name="Path 249" class="cls-2" d="M18.654,100.8A11.238,11.238,0,0,0,8,108.515H22.573a12,12,0,0,1,3.184-5.2A11.792,11.792,0,0,0,18.654,100.8Z" transform="translate(-8 -100.8)"/>
        <path id="Path_250" data-name="Path 250" class="cls-2" d="M212.539,141.6a11.2,11.2,0,0,0-2.939,4.653h5.878A11.6,11.6,0,0,0,212.539,141.6Z" transform="translate(-194.17 -138.477)"/>
        <path id="Path_251" data-name="Path 251" class="cls-2" d="M263.1,100.8a11.16,11.16,0,0,0-7.1,2.51,12,12,0,0,1,3.184,5.2h14.573A11.123,11.123,0,0,0,263.1,100.8Z" transform="translate(-237.019 -100.8)"/>
      </g>
    </g>
  </g>
</svg>
