<svg xmlns="http://www.w3.org/2000/svg" width="16" height="14" fill="none" viewBox="0 0 16 14">
    <g fill="#fff" clip-path="url(#a)">
        <path d="M1.32 2.562C.567 2.562 0 2.02 0 1.299c0-.722.566-1.3 1.32-1.3h13.322c.178 0 .355.033.52.098.165.065.315.16.442.282.126.12.226.264.294.422.068.158.103.327.102.498 0 .721-.604 1.263-1.358 1.263H1.32zM14.642 5.701c.178 0 .355.032.52.097.165.066.315.161.442.282.126.12.226.264.294.422.068.158.103.327.102.498 0 .722-.604 1.263-1.358 1.263H1.32C.566 8.263 0 7.722 0 7c0-.722.566-1.299 1.32-1.299h13.322zM9.327 11.438H1.32C.566 11.438 0 11.98 0 12.701 0 13.423.566 14 1.32 14h8.007c.178 0 .355-.032.52-.097.166-.065.316-.161.442-.282.126-.12.226-.264.295-.422.068-.158.102-.327.101-.498 0-.722-.603-1.263-1.358-1.263z"/>
    </g>
    <defs>
        <clipPath id="a">
            <path fill="#fff" d="M0 0h16v14H0z"/>
        </clipPath>
    </defs>
</svg>
