<svg xmlns="http://www.w3.org/2000/svg" viewBox="0 0 24.692 20">
  <defs>
    <style>
      .cls-1 {
        fill: #fff;
        fill-rule: evenodd;
      }
    </style>
  </defs>
  <g id="noun_basket_353946" transform="translate(-5 -14)">
    <g id="Group_352" data-name="Group 352" transform="translate(5 14)">
      <path id="Path_274" data-name="Path 274" class="cls-1" d="M11.394,20.1a.976.976,0,0,0,1.952,0v-.15a4,4,0,0,1,8,0v.15a.976.976,0,0,0,1.952,0v-.15a5.952,5.952,0,0,0-11.9,0Zm18.257-.819L25.563,32.955A1.464,1.464,0,0,1,24.16,34H10.532a1.464,1.464,0,0,1-1.4-1.045L5.042,19.28a.976.976,0,0,1,.935-1.255h4.969a6.657,6.657,0,0,0-.284,1.924v.15a1.708,1.708,0,0,0,3.417,0v-.15a3.243,3.243,0,0,1,.633-1.924H19.98a3.244,3.244,0,0,1,.633,1.924v.15a1.708,1.708,0,0,0,3.417,0v-.15a6.657,6.657,0,0,0-.284-1.924h4.969a.976.976,0,0,1,.935,1.255Z" transform="translate(-5 -14)"/>
    </g>
  </g>
</svg>
