<svg id="noun_help_1829241" xmlns="http://www.w3.org/2000/svg" viewBox="0 0 16 16">
  <defs>
    <style>
      .cls-1 {
        fill: #fff;
      }
    </style>
  </defs>
  <path id="Path_275" data-name="Path 275" class="cls-1" d="M8,0a8,8,0,1,0,8,8A8,8,0,0,0,8,0ZM7.742,12a1.056,1.056,0,0,1-1.048-1.05A1,1,0,0,1,7.733,9.91,1.045,1.045,0,1,1,7.742,12Zm1.8-4.778c-.109.128-.224.251-.341.373A2.259,2.259,0,0,0,8.5,9.246v.085H7a2.5,2.5,0,0,1,.12-1.08A3.482,3.482,0,0,1,7.8,7.08a2.581,2.581,0,0,0,.445-.659.659.659,0,0,0-.6-.971A2.09,2.09,0,0,0,6.4,5.71c-.15-.39-.3-.771-.44-1.157a.149.149,0,0,1,.064-.13,6.547,6.547,0,0,1,.9-.32,3.53,3.53,0,0,1,1.808.029,1.719,1.719,0,0,1,1.288,1.656A1.939,1.939,0,0,1,9.539,7.222Z"/>
</svg>
