<svg xmlns="http://www.w3.org/2000/svg" viewBox="0 0 83.333 40">
  <defs>
    <style>
      .cls-1 {
        fill: #fff;
      }

      .cls-2 {
        fill: #95989a;
      }

      .cls-3 {
        fill: #eaeaea;
      }

      .cls-4 {
        fill: #dcdcdc;
      }
    </style>
  </defs>
  <g id="Input" transform="translate(-997 -464)">
    <rect id="Rectangle_721" data-name="Rectangle 721" class="cls-1" width="83.333" height="40" rx="4" transform="translate(997 464)"/>
    <g id="Group_324" data-name="Group 324" transform="translate(1898 -11148.738)">
      <path id="XMLID_15_" class="cls-2" d="M133.38,27.55c-.2,1.326-1.205,1.326-2.185,1.326h-.557l.392-2.471a.306.306,0,0,1,.3-.256h.256c.663,0,1.3,0,1.612.377A1.206,1.206,0,0,1,133.38,27.55Zm-.422-3.45h-3.676a.518.518,0,0,0-.512.437l-1.492,9.432a.305.305,0,0,0,.3.347h1.763a.518.518,0,0,0,.512-.437l.407-2.546a.514.514,0,0,1,.5-.437h1.16c2.426,0,3.827-1.175,4.189-3.5a2.892,2.892,0,0,0-.467-2.381A3.531,3.531,0,0,0,132.958,24.1Z" transform="translate(-1001.092 11604.531)"/>
      <path id="XMLID_12_" class="cls-2" d="M188.627,49.186a1.96,1.96,0,0,1-1.989,1.687,1.5,1.5,0,0,1-1.19-.482,1.48,1.48,0,0,1-.271-1.235,1.981,1.981,0,0,1,1.974-1.7,1.488,1.488,0,0,1,1.175.482A1.55,1.55,0,0,1,188.627,49.186Zm2.456-3.42H189.32a.3.3,0,0,0-.3.256l-.075.5-.121-.181a2.493,2.493,0,0,0-2.079-.738,4.049,4.049,0,0,0-3.932,3.541,3.353,3.353,0,0,0,.663,2.712,2.763,2.763,0,0,0,2.215.889,3.383,3.383,0,0,0,2.441-1.009l-.075.482a.318.318,0,0,0,.3.362h1.582a.518.518,0,0,0,.512-.437l.949-6.027A.325.325,0,0,0,191.083,45.766Z" transform="translate(-1048.218 11586.271)"/>
      <path id="XMLID_11_" class="cls-2" d="M253.97,46.7h-1.763a.521.521,0,0,0-.422.226l-2.441,3.586-1.04-3.45a.52.52,0,0,0-.5-.362h-1.733a.3.3,0,0,0-.286.407l1.944,5.725-1.838,2.591a.3.3,0,0,0,.256.482h1.763a.485.485,0,0,0,.422-.226l5.891-8.5A.307.307,0,0,0,253.97,46.7Z" transform="translate(-1101.734 11585.336)"/>
      <path id="XMLID_8_" class="cls-2" d="M307.565,27.55c-.2,1.326-1.205,1.326-2.185,1.326h-.557l.392-2.471a.307.307,0,0,1,.3-.256h.256c.663,0,1.3,0,1.612.377A1.206,1.206,0,0,1,307.565,27.55Zm-.422-3.45h-3.676a.492.492,0,0,0-.5.437l-1.492,9.432a.305.305,0,0,0,.3.347h1.883a.333.333,0,0,0,.347-.3l.422-2.667a.514.514,0,0,1,.5-.437h1.16c2.426,0,3.827-1.175,4.189-3.5a2.892,2.892,0,0,0-.467-2.381A3.375,3.375,0,0,0,307.143,24.1Z" transform="translate(-1149.046 11604.531)"/>
      <path id="XMLID_5_" class="cls-2" d="M362.727,49.186a1.959,1.959,0,0,1-1.989,1.687,1.5,1.5,0,0,1-1.19-.482,1.48,1.48,0,0,1-.271-1.235,1.979,1.979,0,0,1,1.974-1.687,1.4,1.4,0,0,1,1.477,1.718Zm2.456-3.42h-1.763a.3.3,0,0,0-.3.256l-.075.5-.121-.181a2.493,2.493,0,0,0-2.079-.738,4.049,4.049,0,0,0-3.932,3.541,3.353,3.353,0,0,0,.663,2.712,2.763,2.763,0,0,0,2.215.889,3.383,3.383,0,0,0,2.441-1.009l-.075.482a.318.318,0,0,0,.3.362h1.582a.492.492,0,0,0,.5-.437l.949-6.027A.3.3,0,0,0,365.183,45.766Z" transform="translate(-1196.087 11586.271)"/>
      <path id="XMLID_4_" class="cls-2" d="M417.385,24.271l-1.507,9.613a.305.305,0,0,0,.3.347H417.7a.518.518,0,0,0,.512-.437l1.492-9.432a.318.318,0,0,0-.3-.362h-1.7A.325.325,0,0,0,417.385,24.271Z" transform="translate(-1246.209 11604.616)"/>
      <path id="XMLID_3_" class="cls-3" d="M31.235,27.4c-.015.09-.03.2-.045.3-.678,3.405-2.953,4.58-5.861,4.58H23.852a.714.714,0,0,0-.708.6l-.753,4.806-.211,1.356a.38.38,0,0,0,.377.437h2.607a.619.619,0,0,0,.618-.527l.03-.136.5-3.134.03-.166a.63.63,0,0,1,.618-.527h.392c2.546,0,4.535-1.04,5.123-4.023a3.428,3.428,0,0,0-.527-3.028A2.386,2.386,0,0,0,31.235,27.4Z" transform="translate(-911.829 11601.729)"/>
      <path id="XMLID_2_" class="cls-4" d="M36,24.226a2.408,2.408,0,0,0-.316-.075,2.555,2.555,0,0,0-.331-.06A8.81,8.81,0,0,0,34.039,24H30.092a.552.552,0,0,0-.271.06.621.621,0,0,0-.347.467l-.844,5.334-.03.151a.726.726,0,0,1,.708-.6h1.477c2.908,0,5.183-1.175,5.846-4.6.015-.105.03-.2.045-.3a2.927,2.927,0,0,0-.542-.226A.535.535,0,0,0,36,24.226Z" transform="translate(-917.285 11604.616)"/>
      <path id="XMLID_1_" class="cls-2" d="M5.133,4.143a.621.621,0,0,1,.347-.467.591.591,0,0,1,.271-.06H9.7a8.957,8.957,0,0,1,1.311.09c.121.015.226.045.331.06.105.03.211.045.316.075.045.015.105.03.151.045a2.927,2.927,0,0,1,.542.226,3.219,3.219,0,0,0-.678-2.893C10.919.362,9.563,0,7.83,0H2.783a.7.7,0,0,0-.708.6L-.035,13.937a.433.433,0,0,0,.422.5H3.506L4.29,9.477Z" transform="translate(-892.959 11625)"/>
    </g>
  </g>
</svg>
