<svg xmlns="http://www.w3.org/2000/svg" viewBox="0 0 85 85">
  <defs>
    <style>
      .cls-1 {
        fill: #fff;
      }
    </style>
  </defs>
  <g id="noun_safe_1638094" transform="translate(-4.006 -4.11)">
    <path id="Path_208" data-name="Path 208" class="cls-1" d="M35.11,44.217a9.1,9.1,0,0,0,8.053-4.858,1.491,1.491,0,0,1,.354-.443l4.44-3.807L43.517,31.3a1.491,1.491,0,0,1-.354-.443A9.108,9.108,0,1,0,35.11,44.217Z" transform="translate(11.396 11.565)"/>
    <path id="Path_209" data-name="Path 209" class="cls-1" d="M38.229,17.051a22.527,22.527,0,0,0-13.453,5.632l2.381,2.4L25.01,27.255l-2.381-2.4a22.978,22.978,0,0,0-5.578,13.584H20.01V41.5H17.051a22.978,22.978,0,0,0,5.578,13.584l2.381-2.4,2.147,2.168-2.381,2.4a22.527,22.527,0,0,0,13.453,5.632V59.9h3.037v2.988a22.527,22.527,0,0,0,13.453-5.632l-2.381-2.4,2.147-2.168,2.381,2.4A22.978,22.978,0,0,0,62.444,41.5H59.485V38.436h2.959a22.978,22.978,0,0,0-5.578-13.584l-2.381,2.4-2.147-2.168,2.381-2.4a22.527,22.527,0,0,0-13.453-5.632v2.988H38.229ZM39.748,27.7a12.1,12.1,0,0,1,10.6,6.276l5.574,4.825a1.543,1.543,0,0,1,0,2.327l-5.574,4.825A12.094,12.094,0,0,1,35.691,51.53,12.28,12.28,0,0,1,39.748,27.7Z" transform="translate(6.758 6.704)"/>
    <path id="Path_210" data-name="Path 210" class="cls-1" d="M4.006,24.735c.647,34.942,36.634,60.448,42.5,64.375,5.866-3.927,41.853-29.433,42.5-64.375L46.506,4.11ZM72.315,46.673A25.809,25.809,0,1,1,46.506,20.729,25.877,25.877,0,0,1,72.315,46.673Z" transform="translate(0 0)"/>
  </g>
</svg>
