<svg xmlns="http://www.w3.org/2000/svg" viewBox="0 0 97.513 85">
  <defs>
    <style>
      .cls-1, .cls-2 {
        fill: #fff;
      }

      .cls-2 {
        stroke: #1565c0;
        stroke-width: 3px;
      }

      .cls-3 {
        fill: #1565c0;
      }

      .cls-4 {
        stroke: none;
      }

      .cls-5 {
        fill: none;
      }
    </style>
  </defs>
  <g id="Group_1" data-name="Group 1" transform="translate(-171.487 -321)">
    <path id="Path_1" data-name="Path 1" class="cls-1" d="M-944.875,1014.82l5.331,5.331a2.32,2.32,0,0,0,2.8.361,7.939,7.939,0,0,1,9.668,1.175,7.909,7.909,0,0,1,1.175,9.668,2.2,2.2,0,0,0,.361,2.8l5.421,5.421a5.606,5.606,0,0,0,3.976,1.626,5.606,5.606,0,0,0,3.976-1.626l32.979-32.978-32.8-32.8-32.979,32.979A5.87,5.87,0,0,0-944.875,1014.82Z" transform="translate(1118 -635.203)"/>
    <path id="Path_2" data-name="Path 2" class="cls-1" d="M-877.4,963.348a2.341,2.341,0,0,0-.361-2.891l-5.331-5.331a5.672,5.672,0,0,0-7.951,0L-904.6,968.679l32.8,32.8,13.553-13.553a5.672,5.672,0,0,0,0-7.951l-5.331-5.331a2.455,2.455,0,0,0-2.891-.361,7.8,7.8,0,0,1-9.758-1.084A7.833,7.833,0,0,1-877.4,963.348Z" transform="translate(1113.11 -632.5)"/>
    <g id="Ellipse_1" data-name="Ellipse 1" class="cls-2" transform="translate(219 355.844)">
      <circle class="cls-4" cx="25" cy="25" r="25"/>
      <circle class="cls-5" cx="25" cy="25" r="23.5"/>
    </g>
    <path id="Path_3" data-name="Path 3" class="cls-3" d="M79.136,31.737H79c-5.184-.342-10.342-3.605-10.408-3.632a.382.382,0,0,0-.526,0c-.066.039-5.224,3.3-10.408,3.632h-.132a.4.4,0,0,0-.368.434V32.3c.105.645,1.789,16.237,2.329,18.789.605,2.724,7.816,6.395,8.618,6.8l.237.105.237-.105c.842-.408,8.053-4.079,8.618-6.8.579-2.566,2.263-18.118,2.329-18.789v-.132C79.5,31.947,79.373,31.737,79.136,31.737ZM67.847,47.105l-3.5-3.447,1.211-1.211,1.987,1.947,4.171-6.237,1.421.947Z" transform="translate(175.843 337.844)"/>
  </g>
</svg>
