<svg id="Layer_1" data-name="Layer 1" xmlns="http://www.w3.org/2000/svg" viewBox="0 0 61.12 84.87"><defs><style>.cls-1{fill:#fff;}</style></defs><title>SUPER_GUARANTEED</title><path class="cls-1" d="M136.37,248.37h0a.44.44,0,0,0-.34-.17h-.13a12.52,12.52,0,0,1-10.41-1.07l-4.71,13.66a2.12,2.12,0,0,0,1.31,2.69,2.09,2.09,0,0,0,1.46,0l6.66-2.74a1.91,1.91,0,0,1,2.39.85l3.54,6.23a2.11,2.11,0,0,0,2.88.81,2.08,2.08,0,0,0,1-1.16l4.79-13.87A12.64,12.64,0,0,1,136.37,248.37Z" transform="translate(-116.13 -184)"/><path class="cls-1" d="M157,248.37h0a.45.45,0,0,1,.34-.17h.13a12.52,12.52,0,0,0,10.41-1.07l4.71,13.66a2.12,2.12,0,0,1-1.31,2.69,2.09,2.09,0,0,1-1.46,0l-6.66-2.74a1.91,1.91,0,0,0-2.39.85l-3.53,6.23a2.12,2.12,0,0,1-2.89.81,2.08,2.08,0,0,1-1-1.16l-4.79-13.87A12.64,12.64,0,0,0,157,248.37Z" transform="translate(-116.13 -184)"/><path class="cls-1" d="M176,219.71a6.51,6.51,0,0,1,0-7.8,6.54,6.54,0,0,0-3.29-10.16,6.54,6.54,0,0,1-4.59-6.32,6.52,6.52,0,0,0-8.63-6.26,6.45,6.45,0,0,1-2.09.34,6.52,6.52,0,0,1-5.33-2.76A6.94,6.94,0,0,0,146.7,184v0h-.24v0a6.54,6.54,0,0,0-5.1,2.73,6.52,6.52,0,0,1-5.33,2.76,6.45,6.45,0,0,1-2.09-.34,6.52,6.52,0,0,0-8.63,6.26,6.54,6.54,0,0,1-4.58,6.32,6.53,6.53,0,0,0-3.3,10.16,6.51,6.51,0,0,1,0,7.8,6.77,6.77,0,0,0-1,1.95,6.54,6.54,0,0,0,4.29,8.19,6.55,6.55,0,0,1,4.58,6.32,6.52,6.52,0,0,0,8.63,6.26,6.54,6.54,0,0,1,7.42,2.41,6.71,6.71,0,0,0,1.55,1.55,6.41,6.41,0,0,0,3.55,1.18h.24v0a7.11,7.11,0,0,0,3.78-1.18,6.71,6.71,0,0,0,1.55-1.55,6.55,6.55,0,0,1,7.42-2.41,6.51,6.51,0,0,0,8.28-4.06,6.58,6.58,0,0,0,.35-2.2,6.55,6.55,0,0,1,4.59-6.32,6.54,6.54,0,0,0,4.28-8.19A6.77,6.77,0,0,0,176,219.71Zm-37.34-15.57a4.19,4.19,0,1,1-4.18,4.18A4.18,4.18,0,0,1,138.62,204.14Zm20.08,16.21c-1.13,5.8-6.62,9.83-12.32,9.88a12.19,12.19,0,0,1-11.68-9.88,2.07,2.07,0,0,1,0-.35,2,2,0,0,1,2-2h20a2,2,0,0,1,2,2A1.37,1.37,0,0,1,158.7,220.35Zm-3.93-7.84a4.19,4.19,0,1,1,4.18-4.19A4.19,4.19,0,0,1,154.77,212.51Z" transform="translate(-116.13 -184)"/></svg>