<svg xmlns="http://www.w3.org/2000/svg" viewBox="0 0 83.333 40">
  <defs>
    <style>
      .cls-1 {
        fill: #fff;
      }

      .cls-2 {
        fill: #95989a;
      }

      .cls-3 {
        fill: #dcdcdc;
      }
    </style>
  </defs>
  <g id="Input" transform="translate(-997 -464)">
    <rect id="Rectangle_721" data-name="Rectangle 721" class="cls-1" width="83.333" height="40" rx="4" transform="translate(997 464)"/>
    <g id="Group_323" data-name="Group 323" transform="translate(1012.833 476.5)">
      <path id="Path_229" data-name="Path 229" class="cls-2" d="M61.9,16.234,64.514.9h4.171L66.071,16.234Z" transform="translate(-43.717 -0.636)"/>
      <path id="Path_230" data-name="Path 230" class="cls-2" d="M97.543.646A10.4,10.4,0,0,0,93.813,0c-4.142,0-7.05,2.086-7.05,5.053-.029,2.2,2.086,3.437,3.672,4.171,1.616.764,2.174,1.234,2.174,1.909,0,1.028-1.293,1.5-2.5,1.5a8.985,8.985,0,0,1-3.936-.793l-.587-.264L85,15.011a13.2,13.2,0,0,0,4.671.823c4.406,0,7.256-2.056,7.285-5.229.029-1.733-1.087-3.084-3.5-4.171-1.469-.705-2.35-1.175-2.35-1.909,0-.646.764-1.322,2.379-1.322a7.234,7.234,0,0,1,3.114.588l.382.176L97.543.646" transform="translate(-60.031)"/>
      <path id="Path_231" data-name="Path 231" class="cls-2" d="M136.233,1H133a2.094,2.094,0,0,0-2.2,1.263L124.6,16.3h4.377s.7-1.88.881-2.291H135.2c.118.529.5,2.291.5,2.291h3.878L136.233,1m-5.141,9.87c.352-.881,1.674-4.289,1.674-4.289-.029.029.353-.881.558-1.469l.294,1.322s.793,3.672.969,4.436Z" transform="translate(-87.999 -0.706)"/>
      <path id="Path_232" data-name="Path 232" class="cls-2" d="M25.211.9,21.1,11.358l-.441-2.115A11.855,11.855,0,0,0,14.9,2.809l3.731,13.424h4.436L29.646.9H25.211" transform="translate(-10.523 -0.636)"/>
      <path id="Path_233" data-name="Path 233" class="cls-3" d="M6.786.9H.059L0,1.223C5.258,2.486,8.724,5.571,10.164,9.243L8.7,2.193A1.767,1.767,0,0,0,6.786.9" transform="translate(0 -0.636)"/>
    </g>
  </g>
</svg>
